<?xml version="1.0" encoding="UTF-8" standalone="no"?>
<!-- Created with Inkscape (http://www.inkscape.org/) -->

<svg
   xmlns:dc="http://purl.org/dc/elements/1.1/"
   xmlns:cc="http://creativecommons.org/ns#"
   xmlns:rdf="http://www.w3.org/1999/02/22-rdf-syntax-ns#"
   xmlns:svg="http://www.w3.org/2000/svg"
   xmlns="http://www.w3.org/2000/svg"
   xmlns:sodipodi="http://sodipodi.sourceforge.net/DTD/sodipodi-0.dtd"
   xmlns:inkscape="http://www.inkscape.org/namespaces/inkscape"
   width="230"
   height="50"
   id="svg2"
   version="1.1"
   inkscape:version="0.48.3.1 r9886"
   sodipodi:docname="logo-white.svg">
  <sodipodi:namedview
     id="base"
     pagecolor="#ffffff"
     bordercolor="#666666"
     borderopacity="1.0"
     inkscape:pageopacity="0.0"
     inkscape:pageshadow="2"
     inkscape:zoom="4"
     inkscape:cx="48.687541"
     inkscape:cy="18.495156"
     inkscape:document-units="px"
     inkscape:current-layer="layer1"
     showgrid="false"
     inkscape:window-width="1918"
     inkscape:window-height="1059"
     inkscape:window-x="0"
     inkscape:window-y="19"
     inkscape:window-maximized="0" />
  <defs
     id="defs4">
    <marker
       style="overflow:visible"
       id="Arrow1Mstart"
       refX="0"
       refY="0"
       orient="auto"
       inkscape:stockid="Arrow1Mstart">
      <path
         inkscape:connector-curvature="0"
         transform="matrix(0.4,0,0,0.4,4,0)"
         style="fill-rule:evenodd;stroke:#000000;stroke-width:1pt"
         d="M 0,0 5,-5 -12.5,0 5,5 0,0 z"
         id="path3765" />
    </marker>
    <marker
       style="overflow:visible"
       id="DotM"
       refX="0"
       refY="0"
       orient="auto"
       inkscape:stockid="DotM">
      <path
         inkscape:connector-curvature="0"
         transform="matrix(0.4,0,0,0.4,2.96,0.4)"
         style="fill-rule:evenodd;stroke:#000000;stroke-width:1pt"
         d="m -2.5,-1 c 0,2.76 -2.24,5 -5,5 -2.76,0 -5,-2.24 -5,-5 0,-2.76 2.24,-5 5,-5 2.76,0 5,2.24 5,5 z"
         id="path3823" />
    </marker>
    <marker
       style="overflow:visible"
       id="DotL"
       refX="0"
       refY="0"
       orient="auto"
       inkscape:stockid="DotL">
      <path
         inkscape:connector-curvature="0"
         transform="matrix(0.8,0,0,0.8,5.92,0.8)"
         style="fill-rule:evenodd;stroke:#000000;stroke-width:1pt"
         d="m -2.5,-1 c 0,2.76 -2.24,5 -5,5 -2.76,0 -5,-2.24 -5,-5 0,-2.76 2.24,-5 5,-5 2.76,0 5,2.24 5,5 z"
         id="path3820" />
    </marker>
    <marker
       style="overflow:visible"
       id="Arrow1Mend"
       refX="0"
       refY="0"
       orient="auto"
       inkscape:stockid="Arrow1Mend">
      <path
         inkscape:connector-curvature="0"
         transform="matrix(-0.4,0,0,-0.4,-4,0)"
         style="fill-rule:evenodd;stroke:#000000;stroke-width:1pt"
         d="M 0,0 5,-5 -12.5,0 5,5 0,0 z"
         id="path3768" />
    </marker>
    <marker
       style="overflow:visible"
       id="TriangleInL"
       refX="0"
       refY="0"
       orient="auto"
       inkscape:stockid="TriangleInL">
      <path
         inkscape:connector-curvature="0"
         transform="scale(-0.8,-0.8)"
         style="fill-rule:evenodd;stroke:#000000;stroke-width:1pt"
         d="m 5.77,0 -8.65,5 0,-10 8.65,5 z"
         id="path3892" />
    </marker>
    <marker
       style="overflow:visible"
       id="TriangleInM"
       refX="0"
       refY="0"
       orient="auto"
       inkscape:stockid="TriangleInM">
      <path
         inkscape:connector-curvature="0"
         transform="scale(-0.4,-0.4)"
         style="fill-rule:evenodd;stroke:#000000;stroke-width:1pt"
         d="m 5.77,0 -8.65,5 0,-10 8.65,5 z"
         id="path3895" />
    </marker>
    <marker
       style="overflow:visible"
       id="Arrow2Lstart"
       refX="0"
       refY="0"
       orient="auto"
       inkscape:stockid="Arrow2Lstart">
      <path
         inkscape:connector-curvature="0"
         transform="matrix(1.1,0,0,1.1,1.1,0)"
         d="M 8.7185878,4.0337352 -2.2072895,0.01601326 8.7185884,-4.0017078 c -1.7454984,2.3720609 -1.7354408,5.6174519 -6e-7,8.035443 z"
         style="fill-rule:evenodd;stroke-width:0.625;stroke-linejoin:round"
         id="path3777" />
    </marker>
    <marker
       style="overflow:visible"
       id="Arrow2Mend"
       refX="0"
       refY="0"
       orient="auto"
       inkscape:stockid="Arrow2Mend">
      <path
         inkscape:connector-curvature="0"
         transform="scale(-0.6,-0.6)"
         d="M 8.7185878,4.0337352 -2.2072895,0.01601326 8.7185884,-4.0017078 c -1.7454984,2.3720609 -1.7354408,5.6174519 -6e-7,8.035443 z"
         style="fill-rule:evenodd;stroke-width:0.625;stroke-linejoin:round"
         id="path3786" />
    </marker>
    <marker
       style="overflow:visible"
       id="Arrow2Lend"
       refX="0"
       refY="0"
       orient="auto"
       inkscape:stockid="Arrow2Lend">
      <path
         inkscape:connector-curvature="0"
         transform="matrix(-1.1,0,0,-1.1,-1.1,0)"
         d="M 8.7185878,4.0337352 -2.2072895,0.01601326 8.7185884,-4.0017078 c -1.7454984,2.3720609 -1.7354408,5.6174519 -6e-7,8.035443 z"
         style="fill-rule:evenodd;stroke-width:0.625;stroke-linejoin:round"
         id="path3780" />
    </marker>
    <marker
       style="overflow:visible"
       id="Arrow2Lend-1"
       refX="0"
       refY="0"
       orient="auto"
       inkscape:stockid="Arrow2Lend">
      <path
         transform="matrix(-1.1,0,0,-1.1,-1.1,0)"
         d="M 8.7185878,4.0337352 -2.2072895,0.01601326 8.7185884,-4.0017078 c -1.7454984,2.3720609 -1.7354408,5.6174519 -6e-7,8.035443 z"
         style="fill-rule:evenodd;stroke-width:0.625;stroke-linejoin:round"
         id="path3780-8"
         inkscape:connector-curvature="0" />
    </marker>
    <marker
       style="overflow:visible"
       id="Arrow2Lend-9"
       refX="0"
       refY="0"
       orient="auto"
       inkscape:stockid="Arrow2Lend">
      <path
         transform="matrix(-1.1,0,0,-1.1,-1.1,0)"
         d="M 8.7185878,4.0337352 -2.2072895,0.01601326 8.7185884,-4.0017078 c -1.7454984,2.3720609 -1.7354408,5.6174519 -6e-7,8.035443 z"
         style="fill-rule:evenodd;stroke-width:0.625;stroke-linejoin:round"
         id="path3780-2"
         inkscape:connector-curvature="0" />
    </marker>
    <marker
       style="overflow:visible"
       id="DotM-2"
       refX="0"
       refY="0"
       orient="auto"
       inkscape:stockid="DotM">
      <path
         transform="matrix(0.4,0,0,0.4,2.96,0.4)"
         style="fill-rule:evenodd;stroke:#000000;stroke-width:1pt"
         d="m -2.5,-1 c 0,2.76 -2.24,5 -5,5 -2.76,0 -5,-2.24 -5,-5 0,-2.76 2.24,-5 5,-5 2.76,0 5,2.24 5,5 z"
         id="path3823-3"
         inkscape:connector-curvature="0" />
    </marker>
    <marker
       style="overflow:visible"
       id="Arrow2Mend-7"
       refX="0"
       refY="0"
       orient="auto"
       inkscape:stockid="Arrow2Mend">
      <path
         transform="scale(-0.6,-0.6)"
         d="M 8.7185878,4.0337352 -2.2072895,0.01601326 8.7185884,-4.0017078 c -1.7454984,2.3720609 -1.7354408,5.6174519 -6e-7,8.035443 z"
         style="fill-rule:evenodd;stroke-width:0.625;stroke-linejoin:round"
         id="path3786-5"
         inkscape:connector-curvature="0" />
    </marker>
    <marker
       style="overflow:visible"
       id="marker11135"
       refX="0"
       refY="0"
       orient="auto"
       inkscape:stockid="DotM">
      <path
         transform="matrix(0.4,0,0,0.4,2.96,0.4)"
         style="fill-rule:evenodd;stroke:#000000;stroke-width:1pt"
         d="m -2.5,-1 c 0,2.76 -2.24,5 -5,5 -2.76,0 -5,-2.24 -5,-5 0,-2.76 2.24,-5 5,-5 2.76,0 5,2.24 5,5 z"
         id="path11137"
         inkscape:connector-curvature="0" />
    </marker>
    <marker
       style="overflow:visible"
       id="DotM-22"
       refX="0"
       refY="0"
       orient="auto"
       inkscape:stockid="DotM">
      <path
         transform="matrix(0.4,0,0,0.4,2.96,0.4)"
         style="fill-rule:evenodd;stroke:#000000;stroke-width:1pt"
         d="m -2.5,-1 c 0,2.76 -2.24,5 -5,5 -2.76,0 -5,-2.24 -5,-5 0,-2.76 2.24,-5 5,-5 2.76,0 5,2.24 5,5 z"
         id="path3823-8"
         inkscape:connector-curvature="0" />
    </marker>
    <marker
       style="overflow:visible"
       id="Arrow1Mstart-9"
       refX="0"
       refY="0"
       orient="auto"
       inkscape:stockid="Arrow1Mstart">
      <path
         transform="matrix(0.4,0,0,0.4,4,0)"
         style="fill-rule:evenodd;stroke:#000000;stroke-width:1pt"
         d="M 0,0 5,-5 -12.5,0 5,5 0,0 z"
         id="path3765-7"
         inkscape:connector-curvature="0" />
    </marker>
    <marker
       style="overflow:visible"
       id="marker11589"
       refX="0"
       refY="0"
       orient="auto"
       inkscape:stockid="DotM">
      <path
         transform="matrix(0.4,0,0,0.4,2.96,0.4)"
         style="fill-rule:evenodd;stroke:#000000;stroke-width:1pt"
         d="m -2.5,-1 c 0,2.76 -2.24,5 -5,5 -2.76,0 -5,-2.24 -5,-5 0,-2.76 2.24,-5 5,-5 2.76,0 5,2.24 5,5 z"
         id="path11591"
         inkscape:connector-curvature="0" />
    </marker>
    <marker
       style="overflow:visible"
       id="DotM-6"
       refX="0"
       refY="0"
       orient="auto"
       inkscape:stockid="DotM">
      <path
         transform="matrix(0.4,0,0,0.4,2.96,0.4)"
         style="fill-rule:evenodd;stroke:#000000;stroke-width:1pt"
         d="m -2.5,-1 c 0,2.76 -2.24,5 -5,5 -2.76,0 -5,-2.24 -5,-5 0,-2.76 2.24,-5 5,-5 2.76,0 5,2.24 5,5 z"
         id="path3823-1"
         inkscape:connector-curvature="0" />
    </marker>
    <marker
       style="overflow:visible"
       id="Arrow1Mstart-2"
       refX="0"
       refY="0"
       orient="auto"
       inkscape:stockid="Arrow1Mstart">
      <path
         transform="matrix(0.4,0,0,0.4,4,0)"
         style="fill-rule:evenodd;stroke:#000000;stroke-width:1pt"
         d="M 0,0 5,-5 -12.5,0 5,5 0,0 z"
         id="path3765-9"
         inkscape:connector-curvature="0" />
    </marker>
    <marker
       style="overflow:visible"
       id="marker11589-3"
       refX="0"
       refY="0"
       orient="auto"
       inkscape:stockid="DotM">
      <path
         transform="matrix(0.4,0,0,0.4,2.96,0.4)"
         style="fill-rule:evenodd;stroke:#000000;stroke-width:1pt"
         d="m -2.5,-1 c 0,2.76 -2.24,5 -5,5 -2.76,0 -5,-2.24 -5,-5 0,-2.76 2.24,-5 5,-5 2.76,0 5,2.24 5,5 z"
         id="path11591-1"
         inkscape:connector-curvature="0" />
    </marker>
    <marker
       style="overflow:visible"
       id="DotM-25"
       refX="0"
       refY="0"
       orient="auto"
       inkscape:stockid="DotM">
      <path
         transform="matrix(0.4,0,0,0.4,2.96,0.4)"
         style="fill-rule:evenodd;stroke:#000000;stroke-width:1pt"
         d="m -2.5,-1 c 0,2.76 -2.24,5 -5,5 -2.76,0 -5,-2.24 -5,-5 0,-2.76 2.24,-5 5,-5 2.76,0 5,2.24 5,5 z"
         id="path3823-4"
         inkscape:connector-curvature="0" />
    </marker>
    <marker
       style="overflow:visible"
       id="Arrow1Mstart-4"
       refX="0"
       refY="0"
       orient="auto"
       inkscape:stockid="Arrow1Mstart">
      <path
         transform="matrix(0.4,0,0,0.4,4,0)"
         style="fill-rule:evenodd;stroke:#000000;stroke-width:1pt"
         d="M 0,0 5,-5 -12.5,0 5,5 0,0 z"
         id="path3765-99"
         inkscape:connector-curvature="0" />
    </marker>
    <marker
       style="overflow:visible"
       id="marker11649"
       refX="0"
       refY="0"
       orient="auto"
       inkscape:stockid="DotM">
      <path
         transform="matrix(0.4,0,0,0.4,2.96,0.4)"
         style="fill-rule:evenodd;stroke:#000000;stroke-width:1pt"
         d="m -2.5,-1 c 0,2.76 -2.24,5 -5,5 -2.76,0 -5,-2.24 -5,-5 0,-2.76 2.24,-5 5,-5 2.76,0 5,2.24 5,5 z"
         id="path11651"
         inkscape:connector-curvature="0" />
    </marker>
    <marker
       style="overflow:visible"
       id="DotM-60"
       refX="0"
       refY="0"
       orient="auto"
       inkscape:stockid="DotM">
      <path
         transform="matrix(0.4,0,0,0.4,2.96,0.4)"
         style="fill-rule:evenodd;stroke:#000000;stroke-width:1pt"
         d="m -2.5,-1 c 0,2.76 -2.24,5 -5,5 -2.76,0 -5,-2.24 -5,-5 0,-2.76 2.24,-5 5,-5 2.76,0 5,2.24 5,5 z"
         id="path3823-5"
         inkscape:connector-curvature="0" />
    </marker>
    <marker
       style="overflow:visible"
       id="Arrow1Mstart-0"
       refX="0"
       refY="0"
       orient="auto"
       inkscape:stockid="Arrow1Mstart">
      <path
         transform="matrix(0.4,0,0,0.4,4,0)"
         style="fill-rule:evenodd;stroke:#000000;stroke-width:1pt"
         d="M 0,0 5,-5 -12.5,0 5,5 0,0 z"
         id="path3765-2"
         inkscape:connector-curvature="0" />
    </marker>
    <marker
       style="overflow:visible"
       id="marker11687"
       refX="0"
       refY="0"
       orient="auto"
       inkscape:stockid="DotM">
      <path
         transform="matrix(0.4,0,0,0.4,2.96,0.4)"
         style="fill-rule:evenodd;stroke:#000000;stroke-width:1pt"
         d="m -2.5,-1 c 0,2.76 -2.24,5 -5,5 -2.76,0 -5,-2.24 -5,-5 0,-2.76 2.24,-5 5,-5 2.76,0 5,2.24 5,5 z"
         id="path11689"
         inkscape:connector-curvature="0" />
    </marker>
    <marker
       style="overflow:visible"
       id="DotM-4"
       refX="0"
       refY="0"
       orient="auto"
       inkscape:stockid="DotM">
      <path
         transform="matrix(0.4,0,0,0.4,2.96,0.4)"
         style="fill-rule:evenodd;stroke:#000000;stroke-width:1pt"
         d="m -2.5,-1 c 0,2.76 -2.24,5 -5,5 -2.76,0 -5,-2.24 -5,-5 0,-2.76 2.24,-5 5,-5 2.76,0 5,2.24 5,5 z"
         id="path3823-35"
         inkscape:connector-curvature="0" />
    </marker>
    <marker
       style="overflow:visible"
       id="Arrow1Mstart-1"
       refX="0"
       refY="0"
       orient="auto"
       inkscape:stockid="Arrow1Mstart">
      <path
         transform="matrix(0.4,0,0,0.4,4,0)"
         style="fill-rule:evenodd;stroke:#000000;stroke-width:1pt"
         d="M 0,0 5,-5 -12.5,0 5,5 0,0 z"
         id="path3765-74"
         inkscape:connector-curvature="0" />
    </marker>
    <marker
       style="overflow:visible"
       id="marker11724"
       refX="0"
       refY="0"
       orient="auto"
       inkscape:stockid="DotM">
      <path
         transform="matrix(0.4,0,0,0.4,2.96,0.4)"
         style="fill-rule:evenodd;stroke:#000000;stroke-width:1pt"
         d="m -2.5,-1 c 0,2.76 -2.24,5 -5,5 -2.76,0 -5,-2.24 -5,-5 0,-2.76 2.24,-5 5,-5 2.76,0 5,2.24 5,5 z"
         id="path11726"
         inkscape:connector-curvature="0" />
    </marker>
    <marker
       style="overflow:visible"
       id="DotM-46"
       refX="0"
       refY="0"
       orient="auto"
       inkscape:stockid="DotM">
      <path
         transform="matrix(0.4,0,0,0.4,2.96,0.4)"
         style="fill-rule:evenodd;stroke:#000000;stroke-width:1pt"
         d="m -2.5,-1 c 0,2.76 -2.24,5 -5,5 -2.76,0 -5,-2.24 -5,-5 0,-2.76 2.24,-5 5,-5 2.76,0 5,2.24 5,5 z"
         id="path3823-9"
         inkscape:connector-curvature="0" />
    </marker>
    <marker
       style="overflow:visible"
       id="Arrow1Mstart-42"
       refX="0"
       refY="0"
       orient="auto"
       inkscape:stockid="Arrow1Mstart">
      <path
         transform="matrix(0.4,0,0,0.4,4,0)"
         style="fill-rule:evenodd;stroke:#000000;stroke-width:1pt"
         d="M 0,0 5,-5 -12.5,0 5,5 0,0 z"
         id="path3765-26"
         inkscape:connector-curvature="0" />
    </marker>
    <marker
       style="overflow:visible"
       id="marker11762"
       refX="0"
       refY="0"
       orient="auto"
       inkscape:stockid="DotM">
      <path
         transform="matrix(0.4,0,0,0.4,2.96,0.4)"
         style="fill-rule:evenodd;stroke:#000000;stroke-width:1pt"
         d="m -2.5,-1 c 0,2.76 -2.24,5 -5,5 -2.76,0 -5,-2.24 -5,-5 0,-2.76 2.24,-5 5,-5 2.76,0 5,2.24 5,5 z"
         id="path11764"
         inkscape:connector-curvature="0" />
    </marker>
    <marker
       style="overflow:visible"
       id="DotM-1"
       refX="0"
       refY="0"
       orient="auto"
       inkscape:stockid="DotM">
      <path
         transform="matrix(0.4,0,0,0.4,2.96,0.4)"
         style="fill-rule:evenodd;stroke:#000000;stroke-width:1pt"
         d="m -2.5,-1 c 0,2.76 -2.24,5 -5,5 -2.76,0 -5,-2.24 -5,-5 0,-2.76 2.24,-5 5,-5 2.76,0 5,2.24 5,5 z"
         id="path3823-2"
         inkscape:connector-curvature="0" />
    </marker>
    <marker
       style="overflow:visible"
       id="Arrow1Mstart-8"
       refX="0"
       refY="0"
       orient="auto"
       inkscape:stockid="Arrow1Mstart">
      <path
         transform="matrix(0.4,0,0,0.4,4,0)"
         style="fill-rule:evenodd;stroke:#000000;stroke-width:1pt"
         d="M 0,0 5,-5 -12.5,0 5,5 0,0 z"
         id="path3765-8"
         inkscape:connector-curvature="0" />
    </marker>
    <marker
       style="overflow:visible"
       id="marker11799"
       refX="0"
       refY="0"
       orient="auto"
       inkscape:stockid="DotM">
      <path
         transform="matrix(0.4,0,0,0.4,2.96,0.4)"
         style="fill-rule:evenodd;stroke:#000000;stroke-width:1pt"
         d="m -2.5,-1 c 0,2.76 -2.24,5 -5,5 -2.76,0 -5,-2.24 -5,-5 0,-2.76 2.24,-5 5,-5 2.76,0 5,2.24 5,5 z"
         id="path11801"
         inkscape:connector-curvature="0" />
    </marker>
    <marker
       style="overflow:visible"
       id="Arrow1Mstartj"
       refX="0"
       refY="0"
       orient="auto"
       inkscape:stockid="Arrow1Mstartj">
      <path
         inkscape:connector-curvature="0"
         transform="matrix(0.4,0,0,0.4,4,0)"
         style="stroke:#ffffff;stroke-width:1pt;fill:#ffffff;fill-rule:evenodd"
         d="M 0,0 5,-5 -12.5,0 5,5 0,0 z"
         id="path3507" />
    </marker>
    <marker
       style="overflow:visible"
       id="DotMx"
       refX="0"
       refY="0"
       orient="auto"
       inkscape:stockid="DotMx">
      <path
         inkscape:connector-curvature="0"
         transform="matrix(0.4,0,0,0.4,2.96,0.4)"
         style="stroke:#ffffff;stroke-width:1pt;fill:#ffffff;fill-rule:evenodd"
         d="m -2.5,-1 c 0,2.76 -2.24,5 -5,5 -2.76,0 -5,-2.24 -5,-5 0,-2.76 2.24,-5 5,-5 2.76,0 5,2.24 5,5 z"
         id="path3510" />
    </marker>
    <marker
       style="overflow:visible"
       id="DotMh"
       refX="0"
       refY="0"
       orient="auto"
       inkscape:stockid="DotMh">
      <path
         inkscape:connector-curvature="0"
         transform="matrix(0.4,0,0,0.4,2.96,0.4)"
         style="stroke:#ffffff;stroke-width:1pt;fill:#ffffff;fill-rule:evenodd"
         d="m -2.5,-1 c 0,2.76 -2.24,5 -5,5 -2.76,0 -5,-2.24 -5,-5 0,-2.76 2.24,-5 5,-5 2.76,0 5,2.24 5,5 z"
         id="path3703" />
    </marker>
    <marker
       style="overflow:visible"
       id="Arrow1MstartC"
       refX="0"
       refY="0"
       orient="auto"
       inkscape:stockid="Arrow1MstartC">
      <path
         inkscape:connector-curvature="0"
         transform="matrix(0.4,0,0,0.4,4,0)"
         style="stroke:#ffffff;stroke-width:1pt;fill:#ffffff;fill-rule:evenodd"
         d="M 0,0 5,-5 -12.5,0 5,5 0,0 z"
         id="path3706" />
    </marker>
    <marker
       style="overflow:visible"
       id="DotML"
       refX="0"
       refY="0"
       orient="auto"
       inkscape:stockid="DotML">
      <path
         inkscape:connector-curvature="0"
         transform="matrix(0.4,0,0,0.4,2.96,0.4)"
         style="stroke:#ffffff;stroke-width:1pt;fill:#ffffff;fill-rule:evenodd"
         d="m -2.5,-1 c 0,2.76 -2.24,5 -5,5 -2.76,0 -5,-2.24 -5,-5 0,-2.76 2.24,-5 5,-5 2.76,0 5,2.24 5,5 z"
         id="path3709" />
    </marker>
    <marker
       style="overflow:visible"
       id="Arrow1Mstarto"
       refX="0"
       refY="0"
       orient="auto"
       inkscape:stockid="Arrow1Mstarto">
      <path
         inkscape:connector-curvature="0"
         transform="matrix(0.4,0,0,0.4,4,0)"
         style="stroke:#ffffff;stroke-width:1pt;fill:#ffffff;fill-rule:evenodd"
         d="M 0,0 5,-5 -12.5,0 5,5 0,0 z"
         id="path3712" />
    </marker>
    <marker
       style="overflow:visible"
       id="DotMo"
       refX="0"
       refY="0"
       orient="auto"
       inkscape:stockid="DotMo">
      <path
         inkscape:connector-curvature="0"
         transform="matrix(0.4,0,0,0.4,2.96,0.4)"
         style="stroke:#ffffff;stroke-width:1pt;fill:#ffffff;fill-rule:evenodd"
         d="m -2.5,-1 c 0,2.76 -2.24,5 -5,5 -2.76,0 -5,-2.24 -5,-5 0,-2.76 2.24,-5 5,-5 2.76,0 5,2.24 5,5 z"
         id="path3921" />
    </marker>
    <marker
       style="overflow:visible"
       id="Arrow2Mend4"
       refX="0"
       refY="0"
       orient="auto"
       inkscape:stockid="Arrow2Mend4">
      <path
         inkscape:connector-curvature="0"
         transform="scale(-0.6,-0.6)"
         d="M 8.7185878,4.0337352 -2.2072895,0.01601326 8.7185884,-4.0017078 c -1.7454984,2.3720609 -1.7354408,5.6174519 -6e-7,8.035443 z"
         style="stroke-linejoin:round;stroke:#ffffff;stroke-width:0.625;fill:#ffffff;fill-rule:evenodd"
         id="path3924" />
    </marker>
    <marker
       style="overflow:visible"
       id="Arrow1Mstarty"
       refX="0"
       refY="0"
       orient="auto"
       inkscape:stockid="Arrow1Mstarty">
      <path
         inkscape:connector-curvature="0"
         transform="matrix(0.4,0,0,0.4,4,0)"
         style="stroke:#ffffff;stroke-width:1pt;fill:#ffffff;fill-rule:evenodd"
         d="M 0,0 5,-5 -12.5,0 5,5 0,0 z"
         id="path3927" />
    </marker>
    <marker
       style="overflow:visible"
       id="DotM6"
       refX="0"
       refY="0"
       orient="auto"
       inkscape:stockid="DotM6">
      <path
         inkscape:connector-curvature="0"
         transform="matrix(0.4,0,0,0.4,2.96,0.4)"
         style="stroke:#ffffff;stroke-width:1pt;fill:#ffffff;fill-rule:evenodd"
         d="m -2.5,-1 c 0,2.76 -2.24,5 -5,5 -2.76,0 -5,-2.24 -5,-5 0,-2.76 2.24,-5 5,-5 2.76,0 5,2.24 5,5 z"
         id="path3930" />
    </marker>
    <marker
       style="overflow:visible"
       id="marker11799r"
       refX="0"
       refY="0"
       orient="auto"
       inkscape:stockid="marker11799r">
      <path
         transform="matrix(0.4,0,0,0.4,2.96,0.4)"
         style="stroke:#ffffff;stroke-width:1pt;fill:#ffffff;fill-rule:evenodd"
         d="m -2.5,-1 c 0,2.76 -2.24,5 -5,5 -2.76,0 -5,-2.24 -5,-5 0,-2.76 2.24,-5 5,-5 2.76,0 5,2.24 5,5 z"
         id="path3933"
         inkscape:connector-curvature="0" />
    </marker>
    <marker
       style="overflow:visible"
       id="Arrow1Mstart9"
       refX="0"
       refY="0"
       orient="auto"
       inkscape:stockid="Arrow1Mstart9">
      <path
         inkscape:connector-curvature="0"
         transform="matrix(0.4,0,0,0.4,4,0)"
         style="stroke:#ffffff;stroke-width:1pt;fill:#ffffff;fill-rule:evenodd"
         d="M 0,0 5,-5 -12.5,0 5,5 0,0 z"
         id="path3936" />
    </marker>
    <marker
       style="overflow:visible"
       id="marker117997"
       refX="0"
       refY="0"
       orient="auto"
       inkscape:stockid="marker117997">
      <path
         transform="matrix(0.4,0,0,0.4,2.96,0.4)"
         style="stroke:#ffffff;stroke-width:1pt;fill:#ffffff;fill-rule:evenodd"
         d="m -2.5,-1 c 0,2.76 -2.24,5 -5,5 -2.76,0 -5,-2.24 -5,-5 0,-2.76 2.24,-5 5,-5 2.76,0 5,2.24 5,5 z"
         id="path3939"
         inkscape:connector-curvature="0" />
    </marker>
    <marker
       style="overflow:visible"
       id="Arrow1MstartB"
       refX="0"
       refY="0"
       orient="auto"
       inkscape:stockid="Arrow1MstartB">
      <path
         inkscape:connector-curvature="0"
         transform="matrix(0.4,0,0,0.4,4,0)"
         style="stroke:#ffffff;stroke-width:1pt;fill:#ffffff;fill-rule:evenodd"
         d="M 0,0 5,-5 -12.5,0 5,5 0,0 z"
         id="path3942" />
    </marker>
    <marker
       style="overflow:visible"
       id="marker11799x"
       refX="0"
       refY="0"
       orient="auto"
       inkscape:stockid="marker11799x">
      <path
         transform="matrix(0.4,0,0,0.4,2.96,0.4)"
         style="stroke:#ffffff;stroke-width:1pt;fill:#ffffff;fill-rule:evenodd"
         d="m -2.5,-1 c 0,2.76 -2.24,5 -5,5 -2.76,0 -5,-2.24 -5,-5 0,-2.76 2.24,-5 5,-5 2.76,0 5,2.24 5,5 z"
         id="path3945"
         inkscape:connector-curvature="0" />
    </marker>
    <marker
       style="overflow:visible"
       id="DotMT"
       refX="0"
       refY="0"
       orient="auto"
       inkscape:stockid="DotMT">
      <path
         inkscape:connector-curvature="0"
         transform="matrix(0.4,0,0,0.4,2.96,0.4)"
         style="stroke:#ffffff;stroke-width:1pt;fill:#ffffff;fill-rule:evenodd"
         d="m -2.5,-1 c 0,2.76 -2.24,5 -5,5 -2.76,0 -5,-2.24 -5,-5 0,-2.76 2.24,-5 5,-5 2.76,0 5,2.24 5,5 z"
         id="path3948" />
    </marker>
    <marker
       style="overflow:visible"
       id="Arrow2Mend-7m"
       refX="0"
       refY="0"
       orient="auto"
       inkscape:stockid="Arrow2Mend-7m">
      <path
         transform="scale(-0.6,-0.6)"
         d="M 8.7185878,4.0337352 -2.2072895,0.01601326 8.7185884,-4.0017078 c -1.7454984,2.3720609 -1.7354408,5.6174519 -6e-7,8.035443 z"
         style="stroke-linejoin:round;stroke:#ffffff;stroke-width:0.625;fill:#ffffff;fill-rule:evenodd"
         id="path3951"
         inkscape:connector-curvature="0" />
    </marker>
    <marker
       style="overflow:visible"
       id="DotMK"
       refX="0"
       refY="0"
       orient="auto"
       inkscape:stockid="DotMK">
      <path
         inkscape:connector-curvature="0"
         transform="matrix(0.4,0,0,0.4,2.96,0.4)"
         style="stroke:#ffffff;stroke-width:1pt;fill:#ffffff;fill-rule:evenodd"
         d="m -2.5,-1 c 0,2.76 -2.24,5 -5,5 -2.76,0 -5,-2.24 -5,-5 0,-2.76 2.24,-5 5,-5 2.76,0 5,2.24 5,5 z"
         id="path3954" />
    </marker>
    <marker
       style="overflow:visible"
       id="Arrow1MstartK"
       refX="0"
       refY="0"
       orient="auto"
       inkscape:stockid="Arrow1MstartK">
      <path
         inkscape:connector-curvature="0"
         transform="matrix(0.4,0,0,0.4,4,0)"
         style="stroke:#ffffff;stroke-width:1pt;fill:#ffffff;fill-rule:evenodd"
         d="M 0,0 5,-5 -12.5,0 5,5 0,0 z"
         id="path3957" />
    </marker>
    <marker
       style="overflow:visible"
       id="DotM2"
       refX="0"
       refY="0"
       orient="auto"
       inkscape:stockid="DotM2">
      <path
         inkscape:connector-curvature="0"
         transform="matrix(0.4,0,0,0.4,2.96,0.4)"
         style="stroke:#ffffff;stroke-width:1pt;fill:#ffffff;fill-rule:evenodd"
         d="m -2.5,-1 c 0,2.76 -2.24,5 -5,5 -2.76,0 -5,-2.24 -5,-5 0,-2.76 2.24,-5 5,-5 2.76,0 5,2.24 5,5 z"
         id="path3960" />
    </marker>
  </defs>
  <metadata
     id="metadata7">
    <rdf:RDF>
      <cc:Work
         rdf:about="">
        <dc:format>image/svg+xml</dc:format>
        <dc:type
           rdf:resource="http://purl.org/dc/dcmitype/StillImage" />
        <dc:title />
      </cc:Work>
    </rdf:RDF>
  </metadata>
  <g
     transform="translate(0,-1002.3622)"
     id="layer1"
     inkscape:groupmode="layer"
     inkscape:label="Layer 1">
    <g
       style="stroke:#ffffff;stroke-opacity:1;fill:none"
       transform="translate(0.6906527,-0.77073888)"
       id="g14710">
      <g
         style="stroke:#ffffff;stroke-opacity:1;fill:none"
         id="g14701"
         transform="matrix(0.93156703,0,0,0.93156703,-3.4217282,70.48408)">
        <path
           sodipodi:nodetypes="ccc"
           inkscape:connector-curvature="0"
           id="path2985"
           d="m 10.714286,1046.8622 0,-15.8114 0,-22.24"
           style="stroke-linejoin:miter;marker-end:none;stroke-opacity:1;stroke:#ffffff;stroke-linecap:butt;stroke-width:1.07346009999999992px;marker-mid:url(#Arrow1Mstarto);fill:none" />
        <path
           sodipodi:nodetypes="ccc"
           inkscape:transform-center-x="-9.7972971"
           inkscape:transform-center-y="-9.7926222"
           inkscape:connector-curvature="0"
           id="path2985-7"
           d="m 11.06268,1047.0211 6.830166,-6.8303 11.830166,-11.8303"
           style="stroke-linejoin:miter;enable-background:accumulate;marker-end:url(#DotML);stroke-opacity:1;color:#000000;marker-start:url(#DotMh);stroke-dashoffset:0;visibility:visible;display:inline;stroke:#ffffff;stroke-linecap:butt;stroke-miterlimit:4;marker:none;stroke-dasharray:none;overflow:visible;stroke-width:1.07346009999999992px;marker-mid:url(#Arrow1MstartC);fill:none" />
        <path
           sodipodi:nodetypes="ccc"
           inkscape:transform-center-x="9.7926228"
           inkscape:transform-center-y="-9.7973097"
           inkscape:connector-curvature="0"
           id="path2985-7-0"
           d="m 29.857991,1027.5395 -5.223157,-5.223 -13.437442,-13.4373"
           style="stroke-linejoin:miter;marker-end:url(#DotMx);stroke-opacity:1;marker-start:none;stroke:#ffffff;stroke-linecap:butt;stroke-width:1.07346009999999992px;marker-mid:url(#Arrow1Mstartj);fill:none" />
      </g>
      <g
         style="fill:none;stroke:#ffffff;stroke-opacity:1"
         id="g14697"
         transform="matrix(0.99284313,0,0,0.99284313,-9.7362318,8.250214)">
        <path
           sodipodi:nodetypes="ccc"
           inkscape:connector-curvature="0"
           id="path10311"
           d="m 39.118586,1045.0739 6.094896,-17.8937 6.094897,-17.8938"
           style="stroke-linejoin:miter;marker-end:url(#DotMK);stroke-opacity:1;marker-start:url(#DotMT);stroke:#ffffff;stroke-linecap:butt;stroke-width:1.00720846999999991px;marker-mid:url(#Arrow2Mend-7m);fill:none" />
        <path
           sodipodi:nodetypes="ccc"
           inkscape:connector-curvature="0"
           id="path10311-9"
           d="m 63.343871,1045.0739 -6.094896,-17.8937 -6.094897,-17.8938"
           style="stroke-linejoin:miter;marker-end:none;stroke-opacity:1;marker-start:url(#DotMo);stroke:#ffffff;stroke-linecap:butt;stroke-width:1.00720846999999991px;marker-mid:url(#Arrow2Mend4);fill:none" />
      </g>
      <path
         style="font-size:12px;font-style:normal;font-weight:normal;line-height:125%;letter-spacing:0px;word-spacing:0px;fill:none;stroke:#ffffff;stroke-width:1;stroke-linecap:round;stroke-opacity:1;font-family:Sans;stroke-miterlimit:4;stroke-dasharray:none"
         sodipodi:nodetypes="ccscsccccccsc"
         inkscape:connector-curvature="0"
         id="path11828"
         d="m 190.65079,1013.7807 c -2.07085,-0.8874 -4.22135,-1.5524 -6.45145,-1.9957 -2.23015,-0.4421 -4.5399,-0.6665 -6.92929,-0.6665 -3.63726,0 -6.37178,0.4692 -8.20367,1.3974 -1.80537,0.9317 -2.70802,2.3291 -2.70802,4.1916 0,1.4198 0.65043,2.5398 1.95136,3.3605 1.30093,0.7983 3.91597,1.5633 7.84527,2.295 l 2.50889,0.4625 c 5.2036,0.9315 8.89391,2.2514 11.07101,3.9589 2.20352,1.6858 3.3053,4.0481 3.30537,7.0862 -7e-5,3.4599 -1.64612,6.199 -4.93818,8.2172 -3.26555,2.0183 -7.76562,3.0273 -13.50022,3.0273 -2.38942,0 -4.88505,-0.1971 -7.48684,-0.5983" />
      <path
         style="font-size:12px;font-style:normal;font-weight:normal;line-height:125%;letter-spacing:0px;word-spacing:0px;fill:none;stroke:#ffffff;stroke-width:1;stroke-linecap:round;stroke-opacity:1;font-family:Sans;stroke-miterlimit:4;stroke-dasharray:none"
         sodipodi:nodetypes="ccscccscc"
         inkscape:connector-curvature="0"
         id="path11824"
         d="m 128.91952,1014.5012 c -2.07085,-1.1274 -4.15495,-1.9673 -6.25229,-2.5187 -2.07085,-0.578 -4.16822,-0.8657 -6.29214,-0.8657 -4.7523,0 -8.44263,1.4954 -11.071,4.4867 -2.62835,2.9641 -3.94254,7.1352 -3.94247,12.5134 -7e-5,5.3788 1.31412,9.5628 3.94247,12.5534 2.62837,2.9642 6.3187,4.4465 11.071,4.4465 2.12392,0 4.22129,-0.2787 6.29214,-0.8262 2.09734,-0.5779 4.18144,-1.43 6.25229,-2.5581" />
      <path
         style="font-size:12px;font-style:normal;font-weight:normal;line-height:125%;letter-spacing:0px;word-spacing:0px;fill:none;stroke:#ffffff;stroke-width:1;stroke-linecap:round;stroke-opacity:1;font-family:Sans;stroke-miterlimit:4;stroke-dasharray:none"
         sodipodi:nodetypes="cscscsccc"
         inkscape:connector-curvature="0"
         id="path11826"
         d="m 136.34751,1011.1168 0,22.8575 c 0,3.6108 0.82298,6.3248 2.46904,8.1417 1.646,1.7939 4.11512,2.6908 7.40717,2.6908 3.95582,0 7.0753,-1.0785 9.35861,-3.2361 2.30968,-2.157 3.46461,-5.098 3.46461,-8.8224 l 0,-21.6315 m 0,0 c 0.42412,8.8529 -0.068,32.8285 0,34" />
      <path
         style="font-size:12px;font-style:normal;font-weight:normal;line-height:125%;letter-spacing:0px;word-spacing:0px;fill:none;stroke:#ffffff;stroke-width:1;stroke-linecap:round;stroke-opacity:1;font-family:Sans;stroke-miterlimit:4;stroke-dasharray:none"
         sodipodi:nodetypes="ccscsccccccsc"
         inkscape:connector-curvature="0"
         id="path11828-3"
         d="m 220.97348,1013.7807 c -2.07085,-0.8874 -4.22134,-1.5524 -6.45142,-1.9957 -2.23017,-0.4421 -4.53992,-0.6665 -6.92932,-0.6665 -3.63725,0 -6.37178,0.4692 -8.20367,1.3974 -1.80536,0.9317 -2.70802,2.3291 -2.70802,4.1916 0,1.4198 0.65044,2.5398 1.95136,3.3605 1.30093,0.7983 3.91599,1.5633 7.84529,2.295 l 2.50888,0.4625 c 5.20358,0.9315 8.89391,2.2514 11.071,3.9589 2.20351,1.6858 3.3053,4.0481 3.30537,7.0862 -7e-5,3.4599 -1.64613,6.199 -4.93819,8.2172 -3.26553,2.0183 -7.76561,3.0273 -13.50022,3.0273 -2.3894,0 -4.88504,-0.1971 -7.48682,-0.5983" />
      <g
         style="fill:none;stroke:#ffffff;stroke-opacity:1"
         id="g14691"
         transform="matrix(0.95041829,0,0,0.95041829,-8.5908033,51.962974)">
        <path
           sodipodi:nodetypes="ccc"
           inkscape:transform-center-x="-9.7972971"
           inkscape:transform-center-y="-9.7926222"
           inkscape:connector-curvature="0"
           id="path2985-7-9"
           d="m 71.06268,1027.0211 6.830166,-6.8303 11.830166,-11.8303"
           style="stroke-linejoin:miter;enable-background:accumulate;marker-end:url(#DotM2);stroke-opacity:1;color:#000000;stroke-dashoffset:0;visibility:visible;display:inline;stroke:#ffffff;stroke-linecap:butt;stroke-miterlimit:4;marker:none;stroke-dasharray:none;overflow:visible;stroke-width:1.05216836999999996px;marker-mid:url(#Arrow1MstartK);fill:none" />
        <path
           sodipodi:nodetypes="ccc"
           inkscape:transform-center-x="9.7972972"
           inkscape:transform-center-y="-9.7926222"
           inkscape:connector-curvature="0"
           id="path2985-7-9-3"
           d="m 89.650872,1045.7038 -6.830166,-6.8303 -11.830166,-11.8303"
           style="stroke-linejoin:miter;marker-end:url(#DotM6);stroke-opacity:1;marker-start:none;stroke:#ffffff;stroke-linecap:butt;stroke-width:1.05216836999999996px;marker-mid:url(#Arrow1Mstarty);fill:none" />
        <path
           sodipodi:nodetypes="ccc"
           inkscape:transform-center-x="9.7972972"
           inkscape:transform-center-y="9.7926571"
           inkscape:connector-curvature="0"
           id="path2985-7-9-31"
           d="m 107.96184,1027.1352 -6.83017,6.8303 -11.830165,11.8303"
           style="stroke-linejoin:miter;enable-background:accumulate;marker-end:url(#marker11799x);stroke-opacity:1;color:#000000;stroke-dashoffset:0;visibility:visible;display:inline;stroke:#ffffff;stroke-linecap:butt;stroke-miterlimit:4;marker:none;stroke-dasharray:none;overflow:visible;stroke-width:1.05216836999999996px;marker-mid:url(#Arrow1MstartB);fill:none" />
        <path
           sodipodi:nodetypes="ccc"
           inkscape:transform-center-x="-9.7810486"
           inkscape:transform-center-y="0.0032420478"
           inkscape:connector-curvature="0"
           id="path2985-7-9-31-9"
           d="m 89.370091,1027.1055 6.828694,-10e-5 11.827575,-10e-5"
           style="stroke-linejoin:miter;enable-background:accumulate;marker-end:url(#marker117997);stroke-opacity:1;color:#000000;marker-start:url(#marker11799r);stroke-dashoffset:0;visibility:visible;display:inline;stroke:#ffffff;stroke-linecap:butt;stroke-miterlimit:4;marker:none;stroke-dasharray:none;overflow:visible;stroke-width:1.05216825000000003px;marker-mid:url(#Arrow1Mstart9);fill:none" />
      </g>
    </g>
  </g>
</svg>
