<?xml version="1.0" encoding="UTF-8" standalone="no"?>
<!-- Created with Inkscape (http://www.inkscape.org/) -->

<svg
   xmlns:dc="http://purl.org/dc/elements/1.1/"
   xmlns:cc="http://creativecommons.org/ns#"
   xmlns:rdf="http://www.w3.org/1999/02/22-rdf-syntax-ns#"
   xmlns:svg="http://www.w3.org/2000/svg"
   xmlns="http://www.w3.org/2000/svg"
   xmlns:sodipodi="http://sodipodi.sourceforge.net/DTD/sodipodi-0.dtd"
   xmlns:inkscape="http://www.inkscape.org/namespaces/inkscape"
   width="230"
   height="50"
   id="svg2"
   version="1.1"
   inkscape:version="0.48.3.1 r9886"
   sodipodi:docname="logo.svg">
  <defs
     id="defs4">
    <marker
       inkscape:stockid="Arrow1Mstart"
       orient="auto"
       refY="0"
       refX="0"
       id="Arrow1Mstart"
       style="overflow:visible">
      <path
         id="path3765"
         d="M 0,0 5,-5 -12.5,0 5,5 0,0 z"
         style="fill-rule:evenodd;stroke:#000000;stroke-width:1pt"
         transform="matrix(0.4,0,0,0.4,4,0)"
         inkscape:connector-curvature="0" />
    </marker>
    <marker
       inkscape:stockid="DotM"
       orient="auto"
       refY="0"
       refX="0"
       id="DotM"
       style="overflow:visible">
      <path
         id="path3823"
         d="m -2.5,-1 c 0,2.76 -2.24,5 -5,5 -2.76,0 -5,-2.24 -5,-5 0,-2.76 2.24,-5 5,-5 2.76,0 5,2.24 5,5 z"
         style="fill-rule:evenodd;stroke:#000000;stroke-width:1pt"
         transform="matrix(0.4,0,0,0.4,2.96,0.4)"
         inkscape:connector-curvature="0" />
    </marker>
    <marker
       inkscape:stockid="DotL"
       orient="auto"
       refY="0"
       refX="0"
       id="DotL"
       style="overflow:visible">
      <path
         id="path3820"
         d="m -2.5,-1 c 0,2.76 -2.24,5 -5,5 -2.76,0 -5,-2.24 -5,-5 0,-2.76 2.24,-5 5,-5 2.76,0 5,2.24 5,5 z"
         style="fill-rule:evenodd;stroke:#000000;stroke-width:1pt"
         transform="matrix(0.8,0,0,0.8,5.92,0.8)"
         inkscape:connector-curvature="0" />
    </marker>
    <marker
       inkscape:stockid="Arrow1Mend"
       orient="auto"
       refY="0"
       refX="0"
       id="Arrow1Mend"
       style="overflow:visible">
      <path
         id="path3768"
         d="M 0,0 5,-5 -12.5,0 5,5 0,0 z"
         style="fill-rule:evenodd;stroke:#000000;stroke-width:1pt"
         transform="matrix(-0.4,0,0,-0.4,-4,0)"
         inkscape:connector-curvature="0" />
    </marker>
    <marker
       inkscape:stockid="TriangleInL"
       orient="auto"
       refY="0"
       refX="0"
       id="TriangleInL"
       style="overflow:visible">
      <path
         id="path3892"
         d="m 5.77,0 -8.65,5 0,-10 8.65,5 z"
         style="fill-rule:evenodd;stroke:#000000;stroke-width:1pt"
         transform="scale(-0.8,-0.8)"
         inkscape:connector-curvature="0" />
    </marker>
    <marker
       inkscape:stockid="TriangleInM"
       orient="auto"
       refY="0"
       refX="0"
       id="TriangleInM"
       style="overflow:visible">
      <path
         id="path3895"
         d="m 5.77,0 -8.65,5 0,-10 8.65,5 z"
         style="fill-rule:evenodd;stroke:#000000;stroke-width:1pt"
         transform="scale(-0.4,-0.4)"
         inkscape:connector-curvature="0" />
    </marker>
    <marker
       inkscape:stockid="Arrow2Lstart"
       orient="auto"
       refY="0"
       refX="0"
       id="Arrow2Lstart"
       style="overflow:visible">
      <path
         id="path3777"
         style="fill-rule:evenodd;stroke-width:0.625;stroke-linejoin:round"
         d="M 8.7185878,4.0337352 -2.2072895,0.01601326 8.7185884,-4.0017078 c -1.7454984,2.3720609 -1.7354408,5.6174519 -6e-7,8.035443 z"
         transform="matrix(1.1,0,0,1.1,1.1,0)"
         inkscape:connector-curvature="0" />
    </marker>
    <marker
       inkscape:stockid="Arrow2Mend"
       orient="auto"
       refY="0"
       refX="0"
       id="Arrow2Mend"
       style="overflow:visible">
      <path
         id="path3786"
         style="fill-rule:evenodd;stroke-width:0.625;stroke-linejoin:round"
         d="M 8.7185878,4.0337352 -2.2072895,0.01601326 8.7185884,-4.0017078 c -1.7454984,2.3720609 -1.7354408,5.6174519 -6e-7,8.035443 z"
         transform="scale(-0.6,-0.6)"
         inkscape:connector-curvature="0" />
    </marker>
    <marker
       inkscape:stockid="Arrow2Lend"
       orient="auto"
       refY="0"
       refX="0"
       id="Arrow2Lend"
       style="overflow:visible">
      <path
         id="path3780"
         style="fill-rule:evenodd;stroke-width:0.625;stroke-linejoin:round"
         d="M 8.7185878,4.0337352 -2.2072895,0.01601326 8.7185884,-4.0017078 c -1.7454984,2.3720609 -1.7354408,5.6174519 -6e-7,8.035443 z"
         transform="matrix(-1.1,0,0,-1.1,-1.1,0)"
         inkscape:connector-curvature="0" />
    </marker>
    <marker
       inkscape:stockid="Arrow2Lend"
       orient="auto"
       refY="0"
       refX="0"
       id="Arrow2Lend-1"
       style="overflow:visible">
      <path
         inkscape:connector-curvature="0"
         id="path3780-8"
         style="fill-rule:evenodd;stroke-width:0.625;stroke-linejoin:round"
         d="M 8.7185878,4.0337352 -2.2072895,0.01601326 8.7185884,-4.0017078 c -1.7454984,2.3720609 -1.7354408,5.6174519 -6e-7,8.035443 z"
         transform="matrix(-1.1,0,0,-1.1,-1.1,0)" />
    </marker>
    <marker
       inkscape:stockid="Arrow2Lend"
       orient="auto"
       refY="0"
       refX="0"
       id="Arrow2Lend-9"
       style="overflow:visible">
      <path
         inkscape:connector-curvature="0"
         id="path3780-2"
         style="fill-rule:evenodd;stroke-width:0.625;stroke-linejoin:round"
         d="M 8.7185878,4.0337352 -2.2072895,0.01601326 8.7185884,-4.0017078 c -1.7454984,2.3720609 -1.7354408,5.6174519 -6e-7,8.035443 z"
         transform="matrix(-1.1,0,0,-1.1,-1.1,0)" />
    </marker>
    <marker
       inkscape:stockid="DotM"
       orient="auto"
       refY="0"
       refX="0"
       id="DotM-2"
       style="overflow:visible">
      <path
         inkscape:connector-curvature="0"
         id="path3823-3"
         d="m -2.5,-1 c 0,2.76 -2.24,5 -5,5 -2.76,0 -5,-2.24 -5,-5 0,-2.76 2.24,-5 5,-5 2.76,0 5,2.24 5,5 z"
         style="fill-rule:evenodd;stroke:#000000;stroke-width:1pt"
         transform="matrix(0.4,0,0,0.4,2.96,0.4)" />
    </marker>
    <marker
       inkscape:stockid="Arrow2Mend"
       orient="auto"
       refY="0"
       refX="0"
       id="Arrow2Mend-7"
       style="overflow:visible">
      <path
         inkscape:connector-curvature="0"
         id="path3786-5"
         style="fill-rule:evenodd;stroke-width:0.625;stroke-linejoin:round"
         d="M 8.7185878,4.0337352 -2.2072895,0.01601326 8.7185884,-4.0017078 c -1.7454984,2.3720609 -1.7354408,5.6174519 -6e-7,8.035443 z"
         transform="scale(-0.6,-0.6)" />
    </marker>
    <marker
       inkscape:stockid="DotM"
       orient="auto"
       refY="0"
       refX="0"
       id="marker11135"
       style="overflow:visible">
      <path
         inkscape:connector-curvature="0"
         id="path11137"
         d="m -2.5,-1 c 0,2.76 -2.24,5 -5,5 -2.76,0 -5,-2.24 -5,-5 0,-2.76 2.24,-5 5,-5 2.76,0 5,2.24 5,5 z"
         style="fill-rule:evenodd;stroke:#000000;stroke-width:1pt"
         transform="matrix(0.4,0,0,0.4,2.96,0.4)" />
    </marker>
    <marker
       inkscape:stockid="DotM"
       orient="auto"
       refY="0"
       refX="0"
       id="DotM-22"
       style="overflow:visible">
      <path
         inkscape:connector-curvature="0"
         id="path3823-8"
         d="m -2.5,-1 c 0,2.76 -2.24,5 -5,5 -2.76,0 -5,-2.24 -5,-5 0,-2.76 2.24,-5 5,-5 2.76,0 5,2.24 5,5 z"
         style="fill-rule:evenodd;stroke:#000000;stroke-width:1pt"
         transform="matrix(0.4,0,0,0.4,2.96,0.4)" />
    </marker>
    <marker
       inkscape:stockid="Arrow1Mstart"
       orient="auto"
       refY="0"
       refX="0"
       id="Arrow1Mstart-9"
       style="overflow:visible">
      <path
         inkscape:connector-curvature="0"
         id="path3765-7"
         d="M 0,0 5,-5 -12.5,0 5,5 0,0 z"
         style="fill-rule:evenodd;stroke:#000000;stroke-width:1pt"
         transform="matrix(0.4,0,0,0.4,4,0)" />
    </marker>
    <marker
       inkscape:stockid="DotM"
       orient="auto"
       refY="0"
       refX="0"
       id="marker11589"
       style="overflow:visible">
      <path
         inkscape:connector-curvature="0"
         id="path11591"
         d="m -2.5,-1 c 0,2.76 -2.24,5 -5,5 -2.76,0 -5,-2.24 -5,-5 0,-2.76 2.24,-5 5,-5 2.76,0 5,2.24 5,5 z"
         style="fill-rule:evenodd;stroke:#000000;stroke-width:1pt"
         transform="matrix(0.4,0,0,0.4,2.96,0.4)" />
    </marker>
    <marker
       inkscape:stockid="DotM"
       orient="auto"
       refY="0"
       refX="0"
       id="DotM-6"
       style="overflow:visible">
      <path
         inkscape:connector-curvature="0"
         id="path3823-1"
         d="m -2.5,-1 c 0,2.76 -2.24,5 -5,5 -2.76,0 -5,-2.24 -5,-5 0,-2.76 2.24,-5 5,-5 2.76,0 5,2.24 5,5 z"
         style="fill-rule:evenodd;stroke:#000000;stroke-width:1pt"
         transform="matrix(0.4,0,0,0.4,2.96,0.4)" />
    </marker>
    <marker
       inkscape:stockid="Arrow1Mstart"
       orient="auto"
       refY="0"
       refX="0"
       id="Arrow1Mstart-2"
       style="overflow:visible">
      <path
         inkscape:connector-curvature="0"
         id="path3765-9"
         d="M 0,0 5,-5 -12.5,0 5,5 0,0 z"
         style="fill-rule:evenodd;stroke:#000000;stroke-width:1pt"
         transform="matrix(0.4,0,0,0.4,4,0)" />
    </marker>
    <marker
       inkscape:stockid="DotM"
       orient="auto"
       refY="0"
       refX="0"
       id="marker11589-3"
       style="overflow:visible">
      <path
         inkscape:connector-curvature="0"
         id="path11591-1"
         d="m -2.5,-1 c 0,2.76 -2.24,5 -5,5 -2.76,0 -5,-2.24 -5,-5 0,-2.76 2.24,-5 5,-5 2.76,0 5,2.24 5,5 z"
         style="fill-rule:evenodd;stroke:#000000;stroke-width:1pt"
         transform="matrix(0.4,0,0,0.4,2.96,0.4)" />
    </marker>
    <marker
       inkscape:stockid="DotM"
       orient="auto"
       refY="0"
       refX="0"
       id="DotM-25"
       style="overflow:visible">
      <path
         inkscape:connector-curvature="0"
         id="path3823-4"
         d="m -2.5,-1 c 0,2.76 -2.24,5 -5,5 -2.76,0 -5,-2.24 -5,-5 0,-2.76 2.24,-5 5,-5 2.76,0 5,2.24 5,5 z"
         style="fill-rule:evenodd;stroke:#000000;stroke-width:1pt"
         transform="matrix(0.4,0,0,0.4,2.96,0.4)" />
    </marker>
    <marker
       inkscape:stockid="Arrow1Mstart"
       orient="auto"
       refY="0"
       refX="0"
       id="Arrow1Mstart-4"
       style="overflow:visible">
      <path
         inkscape:connector-curvature="0"
         id="path3765-99"
         d="M 0,0 5,-5 -12.5,0 5,5 0,0 z"
         style="fill-rule:evenodd;stroke:#000000;stroke-width:1pt"
         transform="matrix(0.4,0,0,0.4,4,0)" />
    </marker>
    <marker
       inkscape:stockid="DotM"
       orient="auto"
       refY="0"
       refX="0"
       id="marker11649"
       style="overflow:visible">
      <path
         inkscape:connector-curvature="0"
         id="path11651"
         d="m -2.5,-1 c 0,2.76 -2.24,5 -5,5 -2.76,0 -5,-2.24 -5,-5 0,-2.76 2.24,-5 5,-5 2.76,0 5,2.24 5,5 z"
         style="fill-rule:evenodd;stroke:#000000;stroke-width:1pt"
         transform="matrix(0.4,0,0,0.4,2.96,0.4)" />
    </marker>
    <marker
       inkscape:stockid="DotM"
       orient="auto"
       refY="0"
       refX="0"
       id="DotM-60"
       style="overflow:visible">
      <path
         inkscape:connector-curvature="0"
         id="path3823-5"
         d="m -2.5,-1 c 0,2.76 -2.24,5 -5,5 -2.76,0 -5,-2.24 -5,-5 0,-2.76 2.24,-5 5,-5 2.76,0 5,2.24 5,5 z"
         style="fill-rule:evenodd;stroke:#000000;stroke-width:1pt"
         transform="matrix(0.4,0,0,0.4,2.96,0.4)" />
    </marker>
    <marker
       inkscape:stockid="Arrow1Mstart"
       orient="auto"
       refY="0"
       refX="0"
       id="Arrow1Mstart-0"
       style="overflow:visible">
      <path
         inkscape:connector-curvature="0"
         id="path3765-2"
         d="M 0,0 5,-5 -12.5,0 5,5 0,0 z"
         style="fill-rule:evenodd;stroke:#000000;stroke-width:1pt"
         transform="matrix(0.4,0,0,0.4,4,0)" />
    </marker>
    <marker
       inkscape:stockid="DotM"
       orient="auto"
       refY="0"
       refX="0"
       id="marker11687"
       style="overflow:visible">
      <path
         inkscape:connector-curvature="0"
         id="path11689"
         d="m -2.5,-1 c 0,2.76 -2.24,5 -5,5 -2.76,0 -5,-2.24 -5,-5 0,-2.76 2.24,-5 5,-5 2.76,0 5,2.24 5,5 z"
         style="fill-rule:evenodd;stroke:#000000;stroke-width:1pt"
         transform="matrix(0.4,0,0,0.4,2.96,0.4)" />
    </marker>
    <marker
       inkscape:stockid="DotM"
       orient="auto"
       refY="0"
       refX="0"
       id="DotM-4"
       style="overflow:visible">
      <path
         inkscape:connector-curvature="0"
         id="path3823-35"
         d="m -2.5,-1 c 0,2.76 -2.24,5 -5,5 -2.76,0 -5,-2.24 -5,-5 0,-2.76 2.24,-5 5,-5 2.76,0 5,2.24 5,5 z"
         style="fill-rule:evenodd;stroke:#000000;stroke-width:1pt"
         transform="matrix(0.4,0,0,0.4,2.96,0.4)" />
    </marker>
    <marker
       inkscape:stockid="Arrow1Mstart"
       orient="auto"
       refY="0"
       refX="0"
       id="Arrow1Mstart-1"
       style="overflow:visible">
      <path
         inkscape:connector-curvature="0"
         id="path3765-74"
         d="M 0,0 5,-5 -12.5,0 5,5 0,0 z"
         style="fill-rule:evenodd;stroke:#000000;stroke-width:1pt"
         transform="matrix(0.4,0,0,0.4,4,0)" />
    </marker>
    <marker
       inkscape:stockid="DotM"
       orient="auto"
       refY="0"
       refX="0"
       id="marker11724"
       style="overflow:visible">
      <path
         inkscape:connector-curvature="0"
         id="path11726"
         d="m -2.5,-1 c 0,2.76 -2.24,5 -5,5 -2.76,0 -5,-2.24 -5,-5 0,-2.76 2.24,-5 5,-5 2.76,0 5,2.24 5,5 z"
         style="fill-rule:evenodd;stroke:#000000;stroke-width:1pt"
         transform="matrix(0.4,0,0,0.4,2.96,0.4)" />
    </marker>
    <marker
       inkscape:stockid="DotM"
       orient="auto"
       refY="0"
       refX="0"
       id="DotM-46"
       style="overflow:visible">
      <path
         inkscape:connector-curvature="0"
         id="path3823-9"
         d="m -2.5,-1 c 0,2.76 -2.24,5 -5,5 -2.76,0 -5,-2.24 -5,-5 0,-2.76 2.24,-5 5,-5 2.76,0 5,2.24 5,5 z"
         style="fill-rule:evenodd;stroke:#000000;stroke-width:1pt"
         transform="matrix(0.4,0,0,0.4,2.96,0.4)" />
    </marker>
    <marker
       inkscape:stockid="Arrow1Mstart"
       orient="auto"
       refY="0"
       refX="0"
       id="Arrow1Mstart-42"
       style="overflow:visible">
      <path
         inkscape:connector-curvature="0"
         id="path3765-26"
         d="M 0,0 5,-5 -12.5,0 5,5 0,0 z"
         style="fill-rule:evenodd;stroke:#000000;stroke-width:1pt"
         transform="matrix(0.4,0,0,0.4,4,0)" />
    </marker>
    <marker
       inkscape:stockid="DotM"
       orient="auto"
       refY="0"
       refX="0"
       id="marker11762"
       style="overflow:visible">
      <path
         inkscape:connector-curvature="0"
         id="path11764"
         d="m -2.5,-1 c 0,2.76 -2.24,5 -5,5 -2.76,0 -5,-2.24 -5,-5 0,-2.76 2.24,-5 5,-5 2.76,0 5,2.24 5,5 z"
         style="fill-rule:evenodd;stroke:#000000;stroke-width:1pt"
         transform="matrix(0.4,0,0,0.4,2.96,0.4)" />
    </marker>
    <marker
       inkscape:stockid="DotM"
       orient="auto"
       refY="0"
       refX="0"
       id="DotM-1"
       style="overflow:visible">
      <path
         inkscape:connector-curvature="0"
         id="path3823-2"
         d="m -2.5,-1 c 0,2.76 -2.24,5 -5,5 -2.76,0 -5,-2.24 -5,-5 0,-2.76 2.24,-5 5,-5 2.76,0 5,2.24 5,5 z"
         style="fill-rule:evenodd;stroke:#000000;stroke-width:1pt"
         transform="matrix(0.4,0,0,0.4,2.96,0.4)" />
    </marker>
    <marker
       inkscape:stockid="Arrow1Mstart"
       orient="auto"
       refY="0"
       refX="0"
       id="Arrow1Mstart-8"
       style="overflow:visible">
      <path
         inkscape:connector-curvature="0"
         id="path3765-8"
         d="M 0,0 5,-5 -12.5,0 5,5 0,0 z"
         style="fill-rule:evenodd;stroke:#000000;stroke-width:1pt"
         transform="matrix(0.4,0,0,0.4,4,0)" />
    </marker>
    <marker
       inkscape:stockid="DotM"
       orient="auto"
       refY="0"
       refX="0"
       id="marker11799"
       style="overflow:visible">
      <path
         inkscape:connector-curvature="0"
         id="path11801"
         d="m -2.5,-1 c 0,2.76 -2.24,5 -5,5 -2.76,0 -5,-2.24 -5,-5 0,-2.76 2.24,-5 5,-5 2.76,0 5,2.24 5,5 z"
         style="fill-rule:evenodd;stroke:#000000;stroke-width:1pt"
         transform="matrix(0.4,0,0,0.4,2.96,0.4)" />
    </marker>
  </defs>
  <sodipodi:namedview
     id="base"
     pagecolor="#ffffff"
     bordercolor="#666666"
     borderopacity="1.0"
     inkscape:pageopacity="0.0"
     inkscape:pageshadow="2"
     inkscape:zoom="4"
     inkscape:cx="97.062541"
     inkscape:cy="18.495156"
     inkscape:document-units="px"
     inkscape:current-layer="g14710"
     showgrid="false"
     inkscape:window-width="1918"
     inkscape:window-height="1059"
     inkscape:window-x="0"
     inkscape:window-y="19"
     inkscape:window-maximized="0" />
  <metadata
     id="metadata7">
    <rdf:RDF>
      <cc:Work
         rdf:about="">
        <dc:format>image/svg+xml</dc:format>
        <dc:type
           rdf:resource="http://purl.org/dc/dcmitype/StillImage" />
        <dc:title></dc:title>
      </cc:Work>
    </rdf:RDF>
  </metadata>
  <g
     inkscape:label="Layer 1"
     inkscape:groupmode="layer"
     id="layer1"
     transform="translate(0,-1002.3622)">
    <g
       id="g14710"
       transform="translate(0.6906527,-0.77073888)">
      <g
         transform="matrix(0.93156703,0,0,0.93156703,-3.4217282,70.48408)"
         id="g14701">
        <path
           style="fill:none;stroke:#000000;stroke-width:1.0734601px;stroke-linecap:butt;stroke-linejoin:miter;stroke-opacity:1;marker-mid:url(#Arrow1Mstart);marker-end:none"
           d="m 10.714286,1046.8622 0,-15.8114 0,-22.24"
           id="path2985"
           inkscape:connector-curvature="0"
           sodipodi:nodetypes="ccc" />
        <path
           style="color:#000000;fill:none;stroke:#000000;stroke-width:1.0734601px;stroke-linecap:butt;stroke-linejoin:miter;stroke-miterlimit:4;stroke-opacity:1;stroke-dasharray:none;stroke-dashoffset:0;marker:none;marker-start:url(#DotM);marker-mid:url(#Arrow1Mstart);marker-end:url(#DotM);visibility:visible;display:inline;overflow:visible;enable-background:accumulate"
           d="m 11.06268,1047.0211 6.830166,-6.8303 11.830166,-11.8303"
           id="path2985-7"
           inkscape:connector-curvature="0"
           inkscape:transform-center-y="-9.7926222"
           inkscape:transform-center-x="-9.7972971"
           sodipodi:nodetypes="ccc" />
        <path
           style="fill:none;stroke:#000000;stroke-width:1.0734601px;stroke-linecap:butt;stroke-linejoin:miter;stroke-opacity:1;marker-start:none;marker-mid:url(#Arrow1Mstart);marker-end:url(#DotM)"
           d="m 29.857991,1027.5395 -5.223157,-5.223 -13.437442,-13.4373"
           id="path2985-7-0"
           inkscape:connector-curvature="0"
           inkscape:transform-center-y="-9.7973097"
           inkscape:transform-center-x="9.7926228"
           sodipodi:nodetypes="ccc" />
      </g>
      <g
         transform="matrix(0.99284313,0,0,0.99284313,-9.7362318,8.250214)"
         id="g14697">
        <path
           style="fill:none;stroke:#000000;stroke-width:1.00720847px;stroke-linecap:butt;stroke-linejoin:miter;stroke-opacity:1;marker-start:url(#DotM);marker-mid:url(#Arrow2Mend-7);marker-end:url(#DotM)"
           d="m 39.118586,1045.0739 6.094896,-17.8937 6.094897,-17.8938"
           id="path10311"
           inkscape:connector-curvature="0"
           sodipodi:nodetypes="ccc" />
        <path
           style="fill:none;stroke:#000000;stroke-width:1.00720847px;stroke-linecap:butt;stroke-linejoin:miter;stroke-opacity:1;marker-start:url(#DotM);marker-mid:url(#Arrow2Mend);marker-end:none"
           d="m 63.343871,1045.0739 -6.094896,-17.8937 -6.094897,-17.8938"
           id="path10311-9"
           inkscape:connector-curvature="0"
           sodipodi:nodetypes="ccc" />
      </g>
      <path
         d="m 190.65079,1013.7807 c -2.07085,-0.8874 -4.22135,-1.5524 -6.45145,-1.9957 -2.23015,-0.4421 -4.5399,-0.6665 -6.92929,-0.6665 -3.63726,0 -6.37178,0.4692 -8.20367,1.3974 -1.80537,0.9317 -2.70802,2.3291 -2.70802,4.1916 0,1.4198 0.65043,2.5398 1.95136,3.3605 1.30093,0.7983 3.91597,1.5633 7.84527,2.295 l 2.50889,0.4625 c 5.2036,0.9315 8.89391,2.2514 11.07101,3.9589 2.20352,1.6858 3.3053,4.0481 3.30537,7.0862 -7e-5,3.4599 -1.64612,6.199 -4.93818,8.2172 -3.26555,2.0183 -7.76562,3.0273 -13.50022,3.0273 -2.38942,0 -4.88505,-0.1971 -7.48684,-0.5983"
         id="path11828"
         inkscape:connector-curvature="0"
         sodipodi:nodetypes="ccscsccccccsc"
         style="font-size:12px;font-style:normal;font-weight:normal;line-height:125%;letter-spacing:0px;word-spacing:0px;fill:none;stroke:#000000;stroke-width:1;stroke-linecap:round;stroke-opacity:1;font-family:Sans;stroke-miterlimit:4;stroke-dasharray:none" />
      <path
         d="m 128.91952,1014.5012 c -2.07085,-1.1274 -4.15495,-1.9673 -6.25229,-2.5187 -2.07085,-0.578 -4.16822,-0.8657 -6.29214,-0.8657 -4.7523,0 -8.44263,1.4954 -11.071,4.4867 -2.62835,2.9641 -3.94254,7.1352 -3.94247,12.5134 -7e-5,5.3788 1.31412,9.5628 3.94247,12.5534 2.62837,2.9642 6.3187,4.4465 11.071,4.4465 2.12392,0 4.22129,-0.2787 6.29214,-0.8262 2.09734,-0.5779 4.18144,-1.43 6.25229,-2.5581"
         id="path11824"
         inkscape:connector-curvature="0"
         sodipodi:nodetypes="ccscccscc"
         style="font-size:12px;font-style:normal;font-weight:normal;line-height:125%;letter-spacing:0px;word-spacing:0px;fill:none;stroke:#000000;stroke-width:1;stroke-linecap:round;stroke-opacity:1;font-family:Sans;stroke-miterlimit:4;stroke-dasharray:none" />
      <path
         d="m 136.34751,1011.1168 0,22.8575 c 0,3.6108 0.82298,6.3248 2.46904,8.1417 1.646,1.7939 4.11512,2.6908 7.40717,2.6908 3.95582,0 7.0753,-1.0785 9.35861,-3.2361 2.30968,-2.157 3.46461,-5.098 3.46461,-8.8224 l 0,-21.6315 m 0,0 c 0.42412,8.8529 -0.068,32.8285 0,34"
         id="path11826"
         inkscape:connector-curvature="0"
         sodipodi:nodetypes="cscscsccc"
         style="font-size:12px;font-style:normal;font-weight:normal;line-height:125%;letter-spacing:0px;word-spacing:0px;fill:none;stroke:#000000;stroke-width:1;stroke-linecap:round;stroke-opacity:1;font-family:Sans;stroke-miterlimit:4;stroke-dasharray:none" />
      <path
         d="m 220.97348,1013.7807 c -2.07085,-0.8874 -4.22134,-1.5524 -6.45142,-1.9957 -2.23017,-0.4421 -4.53992,-0.6665 -6.92932,-0.6665 -3.63725,0 -6.37178,0.4692 -8.20367,1.3974 -1.80536,0.9317 -2.70802,2.3291 -2.70802,4.1916 0,1.4198 0.65044,2.5398 1.95136,3.3605 1.30093,0.7983 3.91599,1.5633 7.84529,2.295 l 2.50888,0.4625 c 5.20358,0.9315 8.89391,2.2514 11.071,3.9589 2.20351,1.6858 3.3053,4.0481 3.30537,7.0862 -7e-5,3.4599 -1.64613,6.199 -4.93819,8.2172 -3.26553,2.0183 -7.76561,3.0273 -13.50022,3.0273 -2.3894,0 -4.88504,-0.1971 -7.48682,-0.5983"
         id="path11828-3"
         inkscape:connector-curvature="0"
         sodipodi:nodetypes="ccscsccccccsc"
         style="font-size:12px;font-style:normal;font-weight:normal;line-height:125%;letter-spacing:0px;word-spacing:0px;fill:none;stroke:#000000;stroke-width:1;stroke-linecap:round;stroke-opacity:1;font-family:Sans;stroke-miterlimit:4;stroke-dasharray:none" />
      <g
         transform="matrix(0.95041829,0,0,0.95041829,-8.5908033,51.962974)"
         id="g14691">
        <path
           style="color:#000000;fill:none;stroke:#000000;stroke-width:1.05216837px;stroke-linecap:butt;stroke-linejoin:miter;stroke-miterlimit:4;stroke-opacity:1;stroke-dasharray:none;stroke-dashoffset:0;marker:none;marker-mid:url(#Arrow1Mstart);marker-end:url(#DotM);visibility:visible;display:inline;overflow:visible;enable-background:accumulate"
           d="m 71.06268,1027.0211 6.830166,-6.8303 11.830166,-11.8303"
           id="path2985-7-9"
           inkscape:connector-curvature="0"
           inkscape:transform-center-y="-9.7926222"
           inkscape:transform-center-x="-9.7972971"
           sodipodi:nodetypes="ccc" />
        <path
           style="fill:none;stroke:#000000;stroke-width:1.05216837px;stroke-linecap:butt;stroke-linejoin:miter;stroke-opacity:1;marker-start:none;marker-mid:url(#Arrow1Mstart);marker-end:url(#DotM)"
           d="m 89.650872,1045.7038 -6.830166,-6.8303 -11.830166,-11.8303"
           id="path2985-7-9-3"
           inkscape:connector-curvature="0"
           inkscape:transform-center-y="-9.7926222"
           inkscape:transform-center-x="9.7972972"
           sodipodi:nodetypes="ccc" />
        <path
           style="color:#000000;fill:none;stroke:#000000;stroke-width:1.05216837px;stroke-linecap:butt;stroke-linejoin:miter;stroke-miterlimit:4;stroke-opacity:1;stroke-dasharray:none;stroke-dashoffset:0;marker:none;marker-mid:url(#Arrow1Mstart);marker-end:url(#marker11799);visibility:visible;display:inline;overflow:visible;enable-background:accumulate"
           d="m 107.96184,1027.1352 -6.83017,6.8303 -11.830165,11.8303"
           id="path2985-7-9-31"
           inkscape:connector-curvature="0"
           inkscape:transform-center-y="9.7926571"
           inkscape:transform-center-x="9.7972972"
           sodipodi:nodetypes="ccc" />
        <path
           style="color:#000000;fill:none;stroke:#000000;stroke-width:1.05216825px;stroke-linecap:butt;stroke-linejoin:miter;stroke-miterlimit:4;stroke-opacity:1;stroke-dasharray:none;stroke-dashoffset:0;marker:none;marker-start:url(#marker11799);marker-mid:url(#Arrow1Mstart);marker-end:url(#marker11799);visibility:visible;display:inline;overflow:visible;enable-background:accumulate"
           d="m 89.370091,1027.1055 6.828694,-10e-5 11.827575,-10e-5"
           id="path2985-7-9-31-9"
           inkscape:connector-curvature="0"
           inkscape:transform-center-y="0.0032420478"
           inkscape:transform-center-x="-9.7810486"
           sodipodi:nodetypes="ccc" />
      </g>
    </g>
  </g>
</svg>
